<?xml version="1.0" encoding="UTF-8" standalone="no"?>
<svg xmlns="http://www.w3.org/2000/svg" xmlns:xlink="http://www.w3.org/1999/xlink" width="800.028mm" height="552.964mm" viewBox="3162.871582 1595.433105 800.028320 552.964111">
    <path transform="matrix(1,0,0,-1,0,0)" style="stroke:none;fill:#000000;fill-rule:evenodd" d="M3410.800049,-1861.593018L3410.567383,-1861.593018L3410.787842,-1861.77417L3410.800049,-1861.593018z"/>
    <path transform="matrix(1,0,0,-1,0,0)" style="stroke:none;fill:#000000;fill-rule:evenodd" d="M3734.748047,-1838.997559L3735.55127,-1838.904541L3736.116943,-1838.720703C3736.294189,-1838.535645,3736.458252,-1838.337891,3736.540527,-1838.083984L3736.393555,-1837.628662C3733.048584,-1834.232666,3728.97998,-1831.643066,3724.484863,-1830.056885C3692.638184,-1818.313232,3660.318604,-1807.890381,3627.611084,-1798.816895C3624.487305,-1798.008789,3621.200928,-1799.216553,3619.314453,-1801.83374L3618.765869,-1802.411865C3618.452148,-1802.730957,3618.105957,-1803.015137,3617.663818,-1803.068115C3617.541504,-1802.910156,3617.416992,-1802.755615,3617.39209,-1802.541504C3617.718506,-1799.538086,3618.386963,-1796.581787,3619.407471,-1793.738037C3621.163086,-1787.953857,3622.940918,-1782.167725,3624.736084,-1776.395264L3624.961426,-1775.147461C3622.920654,-1774.498535,3620.799072,-1774.146484,3618.657959,-1774.100586C3616.965576,-1774.804199,3615.730713,-1776.296387,3615.283447,-1778.075195C3614.2771,-1780.476318,3613.34082,-1782.905518,3612.467285,-1785.35791L3611.696045,-1787.275391C3610.770996,-1790.144043,3609.288086,-1792.805908,3607.344482,-1795.109375L3607.065186,-1795.804688C3606.563721,-1798.413086,3606.251953,-1801.053223,3606.139648,-1803.707275L3605.9021,-1805.343018C3605.047607,-1809.6521,3603.879395,-1813.892578,3602.405029,-1818.030518L3602.079346,-1819.159424C3601.836914,-1819.944824,3601.648193,-1820.746826,3601.63623,-1821.569092L3602.098877,-1821.804199L3603.029541,-1822.166504C3604.540039,-1822.825928,3606.145996,-1823.238037,3607.787598,-1823.383789C3609.282715,-1822.917236,3610.357666,-1821.628174,3610.669922,-1820.092529C3611.777344,-1817.209473,3612.838867,-1814.309082,3613.858398,-1811.394043L3614.588135,-1809.897949L3615.320313,-1808.759277C3616.503906,-1807.100586,3618.703125,-1806.525879,3620.577881,-1807.32666C3634.031494,-1810.904297,3647.390625,-1814.821533,3660.645996,-1819.076172L3680.809814,-1825.38916C3696.064941,-1830.374023,3711.55127,-1834.619873,3727.215332,-1838.113525C3729.686279,-1838.683838,3732.212402,-1838.979736,3734.748047,-1838.997559z"/>
    <path transform="matrix(1,0,0,-1,0,0)" style="stroke:none;fill:#000000;fill-rule:evenodd" d="M3380.189697,-1838.889648L3381.563477,-1838.74292C3392.735107,-1836.741455,3403.766846,-1834.021729,3414.588623,-1830.600342C3430.290771,-1825.92749,3445.999756,-1821.128174,3461.633301,-1816.228271L3470.189453,-1813.688721C3477.957764,-1811.1521,3485.862061,-1809.051514,3493.86499,-1807.397705L3494.464844,-1807.370605C3496.24585,-1807.834229,3497.707031,-1809.105713,3498.380615,-1810.818604C3499.568359,-1813.789795,3500.6875,-1816.790283,3501.735596,-1819.813232L3502.166504,-1820.792725C3502.615479,-1822.585449,3504.208008,-1823.874268,3506.055176,-1823.83667C3507.596191,-1823.619873,3508.975586,-1822.767822,3509.882813,-1821.50293L3510.125244,-1820.734131C3510.057129,-1817.856934,3509.501465,-1815.014648,3508.491943,-1812.319824L3507.553955,-1808.685791C3506.939697,-1806.36792,3506.663818,-1803.973877,3506.72876,-1801.57666L3507.005371,-1800.242188C3506.828857,-1797.71582,3505.849854,-1795.319336,3504.262695,-1793.346191L3503.493896,-1792.202637C3500.71167,-1787.230713,3498.608154,-1781.906982,3497.244385,-1776.375732L3496.823242,-1775.249268C3496.599609,-1774.703369,3496.36084,-1774.16333,3496.083496,-1773.642822C3495.954834,-1773.414795,3495.757324,-1773.260742,3495.55957,-1773.106445C3493.42627,-1773.353516,3491.364014,-1774.033691,3489.525635,-1775.143799C3488.751221,-1776.380615,3488.628662,-1777.905518,3489.104492,-1779.284912C3490.802734,-1785.388672,3492.678955,-1791.442139,3494.731934,-1797.435791L3495.013428,-1798.540039C3495.342285,-1799.491455,3495.422363,-1800.51001,3495.216797,-1801.49585L3495.018311,-1801.601318L3494.739258,-1801.554688L3494.384033,-1801.358887C3493.834473,-1800.891357,3493.29541,-1800.419922,3492.758057,-1799.938477L3491.991699,-1799.456055C3489.755859,-1798.655518,3487.326172,-1798.563477,3485.039307,-1799.203857C3475.606445,-1801.222656,3466.300781,-1803.797119,3457.171387,-1806.912842C3436.962891,-1813.009766,3416.875977,-1819.479004,3396.907959,-1826.322266C3390.13208,-1828.342773,3383.77124,-1831.564941,3378.132568,-1835.831055C3377.29541,-1836.31665,3376.687988,-1837.114746,3376.403564,-1838.040039L3376.50415,-1838.387695C3376.955078,-1838.756348,3377.496582,-1839.009521,3378.078613,-1838.933838C3378.782471,-1838.966309,3379.487793,-1838.953125,3380.189697,-1838.889648z"/>
    <path transform="matrix(1,0,0,-1,0,0)" style="stroke:none;fill:#000000;fill-rule:evenodd" d="M3341.319092,-1871.780273L3341.010498,-1871.540283C3339.338379,-1870.122559,3338.291992,-1868.10791,3338.066895,-1865.92749C3337.960449,-1864.484863,3337.955322,-1863.036621,3338.044922,-1861.593018L3249.700439,-1861.593018L3250.748535,-1847.318604L3385.356689,-1799.86499C3430.220215,-1784.180176,3475.170654,-1768.203857,3519.861816,-1752.061035L3520.625977,-1751.747559L3520.768066,-1751.45874C3520.925781,-1749.325928,3520.718262,-1747.181396,3520.145996,-1745.121094C3519.72876,-1742.366699,3518.917969,-1739.684326,3517.709229,-1737.174561L3517.515869,-1737.049561L3517.131348,-1736.998291L3516.551025,-1737.025146L3515.762451,-1737.132813C3509.72168,-1738.47998,3503.76709,-1740.188477,3497.929932,-1742.246094C3460.105469,-1754.825195,3422.421631,-1767.841553,3384.89624,-1781.288086L3233.349609,-1834.753662L3234.904541,-1861.593018C3232.937256,-1861.625244,3230.969971,-1861.614014,3229.00293,-1861.563721C3228.32959,-1861.571533,3227.664063,-1861.354492,3227.169434,-1860.902344C3226.674805,-1860.450195,3226.39917,-1859.807129,3226.399658,-1859.136719C3226.039063,-1856.228516,3225.912109,-1853.295898,3226.02002,-1850.367432L3226.02002,-1834.374023L3213.656006,-1842.379395C3199.792725,-1850.456299,3184.958496,-1856.72876,3169.505859,-1861.046875C3167.82959,-1861.329346,3166.153809,-1861.606201,3164.47583,-1861.879395L3163.958984,-1862.281006C3163.087402,-1863.898193,3162.72998,-1865.736084,3162.916016,-1867.563232L3162.916016,-1873.533447L3341.319092,-1873.533447L3341.319092,-1871.780273z"/>
    <path transform="matrix(1,0,0,-1,0,0)" style="stroke:none;fill:#000000;fill-rule:evenodd" d="M3962.779541,-1867.989258C3963.179443,-1866.093018,3962.61377,-1864.107422,3961.190186,-1862.792969C3959.143066,-1861.689453,3956.932617,-1860.919678,3954.644531,-1860.503174L3950.723877,-1859.543213C3935.86084,-1855.811035,3921.722168,-1849.632568,3908.885254,-1841.262695C3907.728027,-1840.44043,3906.58374,-1839.599121,3905.457031,-1838.735596L3902.731445,-1836.754395C3901.582031,-1835.902832,3900.379639,-1835.125977,3899.136475,-1834.418213L3898.691895,-1834.412109L3898.651611,-1834.584717C3897.970215,-1839.747803,3897.746094,-1844.96167,3897.978271,-1850.164307L3897.936523,-1853.854736C3898.083252,-1856.13208,3897.75293,-1858.411377,3897.025635,-1860.574219C3896.14209,-1861.543457,3894.781006,-1861.911133,3893.528564,-1861.521973L3892.720459,-1861.223145C3891.860596,-1860.295166,3891.428223,-1859.066162,3891.417725,-1857.802246C3891.203369,-1855.306152,3891.118408,-1852.801025,3891.165527,-1850.296387L3891.160645,-1834.626221L3871.508545,-1827.762207L3839.509521,-1816.51709L3755.17627,-1786.797852C3705.038574,-1769.178467,3652.963867,-1750.758301,3602.872803,-1732.920898L3599.929199,-1731.801758C3598.543213,-1731.239746,3597.12793,-1730.753174,3595.695313,-1730.322754C3595.496094,-1730.314697,3595.306885,-1730.364502,3595.129639,-1730.44751C3593.80249,-1732.871582,3592.952637,-1735.5271,3592.629395,-1738.271729C3591.978271,-1740.831055,3591.677246,-1743.467529,3591.718262,-1746.10791L3591.82373,-1746.796143L3592.026855,-1747.185547C3607.645752,-1753.235107,3623.380127,-1758.970459,3639.228271,-1764.391113C3717.260742,-1792.134033,3795.844238,-1819.815674,3874.028564,-1847.098389L3874.106934,-1861.593018L3787.665039,-1861.593018L3787.679688,-1861.876953C3787.864014,-1863.560547,3787.797363,-1865.263184,3787.479004,-1866.926514C3787.047119,-1868.856689,3785.958252,-1870.576904,3784.388428,-1871.780273L3784.388428,-1873.533447L3962.791748,-1873.533447L3962.779541,-1867.989258z"/>
    <path transform="matrix(1,0,0,-1,0,0)" style="stroke:none;fill:#000000;fill-rule:evenodd" d="M3566.460938,-1861.132568C3570.465088,-1857.496338,3575.37085,-1854.999756,3580.666748,-1853.901123C3580.105713,-1828.507568,3579.946533,-1803.116455,3580.189209,-1777.717529C3580.131836,-1766.007324,3580.947266,-1754.308594,3582.625732,-1742.71875C3584.328369,-1732.321777,3588.019775,-1722.352539,3593.496094,-1713.352295C3598.55249,-1705.953125,3605.844238,-1700.36499,3614.301514,-1697.400391C3625.96167,-1693.326172,3638.243408,-1691.336426,3650.593506,-1691.525635C3654.359619,-1692.081787,3657.795898,-1693.969482,3660.305664,-1696.832275C3667.487305,-1704.833984,3672.64624,-1714.438232,3675.368408,-1724.839844L3675.760254,-1725.890381C3676.133057,-1727.338135,3676.947998,-1728.644531,3678.137939,-1729.546387C3680.495605,-1730.445801,3683.07251,-1730.552246,3685.496826,-1729.852539C3686.253418,-1728.843506,3686.475586,-1727.54834,3686.143311,-1726.333496C3685.281738,-1719.386719,3683.236328,-1712.63916,3680.097168,-1706.382813L3679.213135,-1704.103027C3679.031006,-1703.557129,3678.864502,-1703.006104,3678.72583,-1702.44751C3678.665039,-1702.185547,3678.692139,-1701.924316,3678.72583,-1701.663818L3679.080811,-1701.580566L3679.565674,-1701.874512C3682.214355,-1705.236816,3684.321533,-1708.990479,3685.820068,-1712.999512C3687.343506,-1716.2771,3688.492188,-1719.716797,3689.226318,-1723.255371L3690.423828,-1730.736572C3698.879639,-1730.298828,3707.317139,-1729.540771,3715.715576,-1728.464111C3716.610352,-1728.394775,3717.493652,-1728.214111,3718.343262,-1727.925293L3718.495117,-1727.8396L3718.607666,-1727.63623C3718.65332,-1727.368652,3718.685303,-1727.099365,3718.698242,-1726.828125C3718.203613,-1721.849365,3717.275146,-1716.923828,3715.92627,-1712.105713C3713.19043,-1700.108887,3709.203369,-1688.431885,3704.027344,-1677.268555C3698.117188,-1664.95166,3689.481934,-1654.143311,3678.774658,-1645.658691C3670.653076,-1639.841309,3661.243164,-1636.076416,3651.350098,-1634.685547L3648.374756,-1634.119873C3642.425293,-1632.829102,3636.688232,-1630.701904,3631.340576,-1627.791992L3624.278076,-1623.827393C3617.475342,-1619.89209,3609.980957,-1617.297607,3602.201904,-1616.179688C3600.687012,-1616.062744,3599.168701,-1615.995361,3597.649414,-1615.976318L3596.535156,-1615.829346C3595.255615,-1615.458984,3594.443604,-1614.233398,3594.529541,-1612.905518C3594.455566,-1611.11084,3594.396973,-1609.326416,3594.353271,-1607.530273L3594.19165,-1605.982666C3593.904297,-1600.483154,3589.393311,-1596.129639,3583.886963,-1596.072021C3574.703125,-1595.46582,3565.49585,-1595.288574,3556.295898,-1595.543213C3549.569336,-1595.328613,3542.834961,-1595.558594,3536.139404,-1596.236328C3532.277588,-1596.346924,3529.082031,-1599.302979,3528.618896,-1603.139404C3528.10083,-1605.450684,3527.848145,-1607.814453,3527.891602,-1610.182373L3527.891602,-1618.589355C3518.4375,-1622.382324,3508.870117,-1625.892334,3499.205811,-1629.114502C3486.7146,-1632.391357,3473.543457,-1631.9729,3461.2854,-1627.909668C3457.577148,-1626.70752,3454.30542,-1624.427246,3451.913818,-1621.349121L3450.821533,-1620.408691C3448.484619,-1619.191406,3445.876221,-1618.592285,3443.242432,-1618.67749C3436.939209,-1618.362061,3430.622314,-1618.447754,3424.330078,-1618.937012C3420.651611,-1619.663574,3417.255859,-1621.417969,3414.554199,-1624.018311L3405.09668,-1631.76416L3405.09668,-1713.136719C3409.199707,-1716.561768,3413.409668,-1719.854736,3417.723145,-1723.010498C3421.238525,-1725.693359,3425.589844,-1727.056641,3430.006348,-1726.828125C3435.877686,-1727.183594,3441.767334,-1726.561035,3447.429932,-1724.969482C3451.243164,-1723.753662,3454.611328,-1721.435303,3457.110352,-1718.308594L3458.234375,-1717.380615C3465.409424,-1712.2854,3473.478271,-1708.588379,3482.024902,-1706.490479C3490.975342,-1706.477783,3499.739014,-1709.025146,3507.289551,-1713.832275C3514.527588,-1717.866943,3520.479736,-1723.860107,3524.478027,-1731.118652C3527.564697,-1737.845947,3529.416748,-1745.072754,3529.94873,-1752.455322C3530.979248,-1765.064697,3531.304199,-1777.722412,3530.92334,-1790.368408C3530.541992,-1812.803711,3530.003418,-1835.23291,3529.307129,-1857.662598L3529.659668,-1857.092041L3530.154297,-1856.450439L3530.707764,-1855.85791C3532.281006,-1854.333008,3534.38501,-1853.490723,3536.575195,-1853.467773L3540.635498,-1853.467773L3540.530029,-1851.114502C3540.008545,-1836.306641,3539.686279,-1821.492188,3539.562744,-1806.675293L3538.977539,-1739.297607C3536.517334,-1734.159668,3533.888184,-1729.104004,3531.094727,-1724.139404C3520.468506,-1706.0896,3500.427734,-1695.741943,3479.558838,-1697.527832C3467.972168,-1699.564697,3457.137451,-1704.648682,3448.166992,-1712.26001L3446.653564,-1713.455078C3443.644287,-1715.604736,3440.013184,-1716.716797,3436.317139,-1716.584717C3432.608398,-1716.944092,3428.864258,-1716.658447,3425.253174,-1715.739746C3421.669922,-1713.841553,3418.641113,-1711.057373,3416.429932,-1707.658691C3415.814697,-1707.126953,3415.505859,-1706.311523,3415.644043,-1705.510986C3415.865723,-1705.35083,3416.130615,-1705.277344,3416.400635,-1705.244141L3416.971191,-1705.244141L3417.639648,-1705.324951C3421.120605,-1705.81958,3424.323242,-1707.506592,3426.737305,-1710.063477L3427.415527,-1710.398926C3432.908203,-1712.052979,3438.781738,-1711.884033,3444.18042,-1709.945801C3447.206299,-1708.467285,3449.757568,-1706.177979,3451.561279,-1703.333984C3452.56543,-1700.32373,3453.005859,-1697.15625,3452.844238,-1693.986816L3452.885986,-1688.187988C3452.728027,-1685.20874,3452.935303,-1682.219971,3453.525146,-1679.296143L3453.662354,-1678.955811L3453.811523,-1678.740234C3454.10083,-1678.759277,3454.371094,-1678.870361,3454.556152,-1679.107666L3454.88916,-1679.759033C3456.031982,-1683.694824,3456.540039,-1687.788086,3456.373047,-1691.883057L3456.495605,-1693.30835C3456.489502,-1695.160645,3457.157471,-1696.957275,3458.4375,-1698.296631L3458.998291,-1698.575928C3459.443604,-1698.683838,3459.900635,-1698.712646,3460.357422,-1698.703125C3464.802979,-1697.568115,3468.793701,-1695.126953,3471.832764,-1691.689697C3473.208252,-1689.180176,3473.908691,-1686.359863,3473.884766,-1683.498291C3474.010742,-1679.435059,3473.954102,-1675.368408,3473.71582,-1671.310547L3472.462158,-1645.849854C3469.194336,-1645.401367,3465.898926,-1645.175781,3462.600586,-1645.17627C3461.033936,-1645.094971,3459.642334,-1646.158936,3459.25293,-1647.679199C3457.779053,-1652.521484,3456.585205,-1657.444092,3455.677734,-1662.423584L3455.430908,-1662.718018L3455.30542,-1662.359863L3455.168213,-1661.510254C3454.831055,-1656.875732,3454.624268,-1652.232178,3454.546387,-1647.585938L3454.440918,-1646.395996C3454.624268,-1643.632568,3452.916748,-1641.075684,3450.292725,-1640.19043L3446.026855,-1638.248535L3445.796631,-1667.632324C3445.887451,-1675.989746,3445.656494,-1684.348877,3445.101074,-1692.688965L3444.926025,-1693.043945C3444.692383,-1689.760986,3444.009277,-1686.525635,3442.892334,-1683.429688L3442.380371,-1682.656006C3441.021729,-1681.441406,3439.244141,-1680.811279,3437.424072,-1680.905029C3430.061279,-1680.66626,3422.692383,-1680.635742,3415.328125,-1680.812012C3415.172363,-1669.354736,3415.202637,-1657.891602,3415.418701,-1646.435059C3415.337158,-1643.4104,3415.641602,-1640.386475,3416.341797,-1637.442871C3417.105469,-1635.44873,3418.66748,-1633.861084,3420.664063,-1633.103516C3421.33252,-1632.753418,3422.050049,-1632.500488,3422.799561,-1632.417969C3423.14917,-1632.362061,3423.492432,-1632.425293,3423.837891,-1632.489014C3424.453369,-1632.808105,3424.838379,-1633.456787,3424.810059,-1634.14917C3425.826172,-1638.008789,3426.56665,-1641.936035,3427.018799,-1645.901123L3428.541992,-1657.787842L3428.9729,-1629.648193C3432.940918,-1629.462646,3436.916504,-1629.510986,3440.879395,-1629.7854C3442.625977,-1629.772461,3444.353516,-1630.195313,3445.860352,-1631.078369L3446.026855,-1631.448242C3446.778809,-1632.868896,3447.996094,-1633.972656,3449.479736,-1634.590088C3462.982666,-1641.25708,3478.220215,-1643.572754,3493.093506,-1641.214111C3503.352295,-1639.587402,3513.345703,-1636.581543,3522.798096,-1632.275879L3525.667969,-1631.210693C3535.204834,-1627.926025,3545.258789,-1626.399902,3555.34082,-1626.699951C3569.21875,-1626.676025,3583.089111,-1626.806396,3596.963867,-1627.091553L3608.049561,-1633.299561C3617.498535,-1638.995117,3627.881104,-1642.978027,3638.714111,-1645.068604C3642.084717,-1645.791992,3645.522461,-1646.164795,3648.969971,-1646.18042L3649.244141,-1646.045654L3649.067871,-1645.805664C3648.223389,-1645.298828,3647.3396,-1644.859131,3646.415771,-1644.517578C3645.981445,-1644.150391,3645.461914,-1643.892822,3644.914551,-1643.724121L3644.45166,-1643.398438L3644.179932,-1643.121826L3644.09668,-1642.894043L3644.201904,-1642.715332L3644.49585,-1642.583008L3644.973389,-1642.502197L3645.639404,-1642.470459C3661.341797,-1642.955566,3676.084961,-1650.172119,3686.101807,-1662.27417C3692.764893,-1670.46582,3698.275879,-1679.527588,3702.491699,-1689.208984C3702.83374,-1689.942871,3703.095459,-1690.711426,3703.23877,-1691.508545L3703.106445,-1691.648193L3702.783203,-1691.476563C3699.643799,-1687.908203,3696.729736,-1684.147949,3694.057861,-1680.216797L3691.278564,-1676.903564C3684.399414,-1669.564697,3676.016357,-1663.801758,3666.701904,-1660.00415C3658.420166,-1656.45874,3649.606445,-1654.316895,3640.621826,-1653.661621C3639.87793,-1653.578613,3639.128906,-1653.626709,3638.388428,-1653.735107L3638.167969,-1653.89917L3638.403076,-1654.144043L3639.064209,-1654.455078C3642.762939,-1655.594971,3646.509766,-1656.573486,3650.294678,-1657.381348L3655.145752,-1658.887451C3662.280762,-1661.089844,3669.014648,-1664.427734,3675.08667,-1668.773438C3676.615723,-1669.895508,3677.913574,-1671.301514,3678.931396,-1672.9021L3678.801758,-1673.202148L3678.625244,-1673.159424L3678.270264,-1673.071045C3675.980957,-1672.164551,3673.749023,-1671.118896,3671.594727,-1669.926758L3666.207275,-1667.441162C3653.468506,-1662.386475,3639.811279,-1660.06543,3626.117188,-1660.618896C3616.722168,-1660.496094,3607.366943,-1661.890869,3598.416016,-1664.747559C3591.148926,-1667.376465,3584.497803,-1671.470215,3578.886475,-1676.783691L3577.684082,-1677.718994C3576.821289,-1678.51123,3575.754639,-1679.050049,3574.598389,-1679.237305L3574.258057,-1679.070801L3574.093994,-1678.693604C3574.428955,-1676.306885,3575.345703,-1674.037842,3576.760742,-1672.08667C3577.916992,-1670.0979,3579.117432,-1668.135254,3580.360596,-1666.199707L3581.349854,-1664.519775C3581.793701,-1663.830811,3582.143066,-1663.085693,3582.410156,-1662.311035C3582.494141,-1662.029053,3582.436279,-1661.742188,3582.287842,-1661.495361C3581.852783,-1661.568115,3581.440918,-1661.720703,3581.04126,-1661.901855C3578.021484,-1663.796387,3575.329834,-1666.169189,3573.077637,-1668.932617C3566.821777,-1676.097412,3561.715088,-1684.189941,3557.94873,-1692.923828L3556.273682,-1696.37915C3555.788818,-1697.381104,3555.28125,-1698.372314,3554.748047,-1699.349609L3554.554688,-1699.388916C3554.550293,-1687.076416,3554.612305,-1674.777344,3554.740723,-1662.465088L3554.628174,-1658.755127C3554.658691,-1653.607666,3553.864502,-1648.488037,3552.274902,-1643.592041C3550.649902,-1639.60376,3547.444092,-1636.467285,3543.422119,-1634.927979C3538.644531,-1632.873779,3533.252686,-1632.771729,3528.403564,-1634.651123C3523.799072,-1636.210449,3519.260742,-1637.958984,3514.800049,-1639.891846L3510.00293,-1641.608398C3499.911377,-1645.341309,3489.185791,-1647.073242,3478.432373,-1646.701904L3478.432373,-1687.30127L3486.533203,-1684.857422C3493.374756,-1683.095459,3500.371338,-1682.002197,3507.424316,-1681.590576L3520.217041,-1680.770264C3512.314941,-1682.517334,3504.521973,-1684.727539,3496.879395,-1687.389648C3494.228271,-1688.280518,3491.744141,-1689.609131,3489.518311,-1691.302734C3492.808594,-1689.984131,3496.304932,-1689.250244,3499.847412,-1689.123291C3508.894531,-1688.348389,3517.961914,-1687.850342,3527.039551,-1687.629639C3521.86499,-1689.324707,3516.766357,-1691.244141,3511.758545,-1693.381836C3510.29248,-1693.970703,3508.901123,-1694.732422,3507.625,-1695.664307L3507.424316,-1695.987549C3507.612793,-1696.476074,3507.895508,-1696.927734,3508.374268,-1697.145752C3509.139404,-1697.762207,3509.952393,-1698.317871,3510.815918,-1698.786377L3516.369873,-1701.717773C3527.173096,-1707.71167,3535.286377,-1717.600342,3539.065674,-1729.362793C3542.284668,-1739.739746,3543.919189,-1750.541016,3543.911865,-1761.405762C3544.476318,-1792.101807,3543.995605,-1822.804932,3542.469727,-1853.467773L3557.787109,-1853.467773C3562.251465,-1853.462646,3565.940918,-1856.953369,3566.171875,-1861.411865L3566.460938,-1861.132568zM3542.577393,-1615.878418L3542.036133,-1615.535645L3541.668945,-1615.028564L3541.53418,-1614.411621L3541.441162,-1614.081055L3541.176514,-1613.750244C3539.562012,-1612.733154,3537.711426,-1612.151367,3535.803955,-1612.094971L3534.772949,-1611.847656L3533.886475,-1611.543945L3533.149414,-1611.196289C3532.768311,-1610.987549,3532.431152,-1610.712891,3532.115967,-1610.415039L3531.826904,-1609.998779L3531.689697,-1609.58252L3531.707031,-1609.175781L3531.880859,-1608.789063C3532.482666,-1608.152344,3533.301514,-1607.804932,3534.160645,-1607.650391C3535.225586,-1607.473633,3536.304443,-1607.396484,3537.383301,-1607.425049L3538.367676,-1607.282959C3539.166016,-1607.189209,3539.938965,-1606.911621,3540.557129,-1606.403809L3541.022461,-1606.002197L3541.353027,-1605.561523C3541.508057,-1605.101074,3541.60376,-1604.621094,3541.492432,-1604.13623L3541.247559,-1603.666016L3540.85083,-1603.212891C3539.947998,-1602.470947,3538.853516,-1602.002686,3537.696777,-1601.834229L3537.500977,-1601.648193C3544.452881,-1601.169434,3551.424805,-1601.042969,3558.389648,-1601.270996L3588.436768,-1601.506104C3588.642578,-1604.750732,3588.791992,-1607.997803,3588.88501,-1611.247559L3588.684814,-1611.72168L3588.625488,-1611.504639L3588.238525,-1609.959473L3586.708008,-1603.212891L3559.442627,-1602.696289C3565.377441,-1603.690674,3571.283691,-1604.854248,3577.152588,-1606.18335C3577.887207,-1606.235107,3578.554443,-1606.557129,3579.175293,-1606.952393L3579.275635,-1607.123779L3579.224365,-1607.295166L3579.030762,-1607.466553C3578.584961,-1607.695068,3578.121338,-1607.888428,3577.637451,-1608.02002L3576.924805,-1608.230713C3575.730713,-1608.570068,3574.606201,-1609.118896,3573.611572,-1609.861572C3572.685303,-1610.430908,3572.13501,-1611.449951,3572.100586,-1612.538086L3571.674561,-1613.047607C3569.253662,-1614.055908,3566.630859,-1614.485352,3564.01709,-1614.269531C3559.625244,-1614.619385,3555.204346,-1614.274902,3550.915771,-1613.265381L3550.281494,-1612.942139C3550.10791,-1612.618164,3549.93042,-1612.297852,3549.860107,-1611.930908L3549.311768,-1611.387207C3548.782227,-1611.022217,3548.145264,-1610.838379,3547.504395,-1610.887695C3546.449951,-1610.764893,3545.446533,-1611.433105,3545.148682,-1612.452393C3544.990967,-1613.105957,3544.876465,-1613.769287,3544.810791,-1614.438477L3544.445801,-1615.251465L3543.9021,-1615.80249C3543.477051,-1615.998779,3543.001709,-1616.081055,3542.577393,-1615.878418zM3570.645996,-1832.601074L3570.398682,-1832.05249C3569.222412,-1827.368896,3568.494629,-1822.583252,3568.233887,-1817.76123C3566.438232,-1799.502197,3565.772949,-1781.149902,3566.24292,-1762.809082C3566.736328,-1750.318115,3568.640625,-1737.92334,3571.921875,-1725.86084C3576.468506,-1708.93457,3587.578125,-1694.516602,3602.782227,-1685.797852C3612.516602,-1680.712891,3623.328613,-1678.038574,3634.311035,-1678.008057C3643.697754,-1677.495605,3653.108643,-1678.375732,3662.237793,-1680.618408C3669.143555,-1682.740479,3675.47583,-1686.401367,3680.758301,-1691.329834L3685.648682,-1696.484619C3681.754395,-1694.014893,3677.820313,-1691.603516,3673.852539,-1689.253174C3668.245117,-1686.181641,3661.938232,-1684.614746,3655.544922,-1684.686035C3639.322021,-1683.300781,3622.996582,-1685.623047,3607.802246,-1691.474121C3601.070068,-1694.047363,3595.025635,-1698.146729,3590.141357,-1703.446533C3586.186035,-1708.688477,3583.028076,-1714.485596,3580.764648,-1720.649658C3577.267822,-1728.97583,3574.821045,-1737.704102,3573.479248,-1746.634521C3572.528564,-1759.672119,3572.077393,-1772.741211,3572.127686,-1785.813477L3572.081055,-1802.896729C3572.230469,-1812.155762,3571.953125,-1821.418213,3571.250977,-1830.651855C3571.276123,-1831.355225,3571.097412,-1832.050049,3570.645996,-1832.601074z"/>
    <path transform="matrix(1,0,0,-1,0,0)" style="stroke:none;fill:#000000;fill-rule:evenodd" d="M3221.818848,-2006.473999C3222.314941,-2011.320313,3223.250244,-2011.995728,3234.865479,-2015.895996C3247.768311,-2020.228638,3263.169189,-2029.009277,3271.38623,-2036.717896L3276.076172,-2041.117798L3276.076172,-2026.302002L3276.076172,-2011.486328L3290.640869,-2011.486328L3305.205322,-2011.486328L3326.882324,-2033.231323C3367.780029,-2074.256836,3393.97998,-2088.954834,3480.735107,-2119.541504C3511.220703,-2130.289551,3542.303223,-2141.179199,3549.807373,-2143.740479L3563.451416,-2148.397217L3627.407227,-2125.849854C3702.238037,-2099.468506,3715.197021,-2094.299805,3735.389648,-2082.781982C3759.034912,-2069.294678,3776.675781,-2055.427246,3799.210693,-2032.612793L3820.078369,-2011.486328L3834.599609,-2011.486328L3849.12085,-2011.486328L3849.336182,-2020.440186C3849.45459,-2025.364746,3849.508057,-2031.504517,3849.455078,-2034.083984C3849.401855,-2036.663574,3849.72168,-2038.77417,3850.165527,-2038.77417C3850.609619,-2038.77417,3854.968994,-2035.76001,3859.853516,-2032.07605C3870.481445,-2024.060059,3888.506836,-2015.240234,3897.152832,-2013.825439C3903.449707,-2012.795166,3905.355469,-2010.159912,3904.086182,-2004.237915C3903.479492,-2001.407593,3885.82373,-2001.253418,3562.365479,-2001.253418L3221.284424,-2001.253418L3221.818848,-2006.473999zM3538.350586,-2043.12085C3538.019531,-2043.056152,3537.706055,-2042.922729,3537.429932,-2042.729126L3537.312256,-2042.489136L3537.273193,-2042.14624L3537.273193,-2025.126831L3544.022217,-2025.126831L3544.360107,-2025.166016L3544.595215,-2025.283569C3544.790283,-2025.560059,3544.922363,-2025.875977,3544.982178,-2026.209229L3546.137939,-2026.209229L3546.137939,-2019.582642L3544.987061,-2019.582642L3544.78125,-2020.199707L3544.595215,-2020.508301L3544.360107,-2020.620972L3544.022217,-2020.660156L3524.788818,-2020.660156L3524.470459,-2020.625854L3524.250244,-2020.513184C3524.058105,-2020.231445,3523.921875,-2019.915527,3523.848633,-2019.582642L3522.707275,-2019.582642L3522.707275,-2026.209229L3523.853516,-2026.209229L3524.059082,-2025.592041L3524.245361,-2025.283569L3524.470459,-2025.166016L3524.788818,-2025.126831L3531.572266,-2025.126831L3531.572266,-2042.14624L3531.532959,-2042.484253L3531.410645,-2042.719238C3531.140381,-2042.920166,3530.82666,-2043.054443,3530.494629,-2043.111084L3530.494629,-2044.242432L3538.350586,-2044.242432L3538.350586,-2043.12085zM3578.550781,-2038.355469L3577.399902,-2038.355469L3577.198975,-2038.962769L3577.008057,-2039.276245L3576.772949,-2039.393799L3576.435059,-2039.437866L3562.775391,-2039.437866C3563.178955,-2039.256104,3563.568604,-2039.045044,3563.940918,-2038.80603L3564.866699,-2038.316284C3565.737061,-2037.932251,3566.61377,-2037.563232,3567.496826,-2037.209351L3570.729248,-2035.759644C3573.271973,-2034.921265,3575.387451,-2033.120605,3576.621094,-2030.744385C3577.944092,-2027.803223,3577.168213,-2024.341797,3574.71582,-2022.246948C3572.063721,-2020.40332,3568.76416,-2019.753784,3565.611084,-2020.454346C3562.850342,-2020.996826,3560.290527,-2022.273438,3558.196045,-2024.1521L3558.039307,-2024.21582L3557.86792,-2024.240356C3557.520264,-2024.18811,3557.182129,-2024.085815,3556.86377,-2023.936646L3556.183105,-2024.63208L3560.997559,-2029.80896L3561.722412,-2029.167358L3561.521484,-2028.427856C3561.466553,-2027.291748,3562.203369,-2026.272827,3563.299316,-2025.969238C3565.466064,-2024.635376,3568.152344,-2024.471924,3570.464844,-2025.533325C3571.385986,-2026.326904,3571.681885,-2027.627197,3571.19458,-2028.741333C3570.44751,-2030.039917,3569.262451,-2031.025391,3567.849365,-2031.523193L3565.008789,-2032.816162C3561.80249,-2033.885986,3559.050537,-2036.012573,3557.206787,-2038.845215C3556.225586,-2040.852783,3555.843018,-2043.10083,3556.104736,-2045.319946L3557.260498,-2045.319946L3557.446777,-2044.678345L3557.642578,-2044.379639C3557.940674,-2044.259399,3558.262939,-2044.212402,3558.583008,-2044.242432L3576.435059,-2044.242432L3576.768066,-2044.286499L3577.003174,-2044.408936C3577.208984,-2044.67688,3577.345215,-2044.991455,3577.399902,-2045.324829L3578.550781,-2045.324829L3578.550781,-2038.355469zM3628.321045,-2038.355469L3627.170166,-2038.355469L3626.964355,-2038.962769L3626.77832,-2039.276245L3626.543213,-2039.393799L3626.205322,-2039.437866L3612.545654,-2039.437866C3612.949219,-2039.256104,3613.338867,-2039.045044,3613.711426,-2038.80603L3614.636963,-2038.316284C3615.506348,-2037.933472,3616.381348,-2037.564575,3617.262207,-2037.209351L3620.499512,-2035.759644C3623.042236,-2034.921265,3625.157715,-2033.120605,3626.391357,-2030.744385C3627.713867,-2027.803223,3626.937988,-2024.342041,3624.486328,-2022.246948C3621.83252,-2020.40271,3618.53125,-2019.753174,3615.376465,-2020.454346C3612.61499,-2020.990356,3610.054932,-2022.267822,3607.966309,-2024.1521L3607.80957,-2024.21582L3607.638184,-2024.240356C3607.290283,-2024.189819,3606.951904,-2024.087402,3606.634277,-2023.936646L3605.953369,-2024.63208L3610.762939,-2029.80896L3611.492676,-2029.167358L3611.291992,-2028.427856C3611.236572,-2027.293213,3611.970703,-2026.275024,3613.064941,-2025.969238C3615.233643,-2024.636108,3617.920898,-2024.472656,3620.235107,-2025.533325C3621.15625,-2026.326904,3621.452148,-2027.627197,3620.964844,-2028.741333C3620.214844,-2030.039429,3619.028564,-2031.024536,3617.614746,-2031.523193L3614.779053,-2032.816162C3611.57251,-2033.88562,3608.820557,-2036.012207,3606.977051,-2038.845215C3605.994873,-2040.852539,3605.612305,-2043.10083,3605.875,-2045.319946L3607.030762,-2045.319946L3607.217041,-2044.678345L3607.412842,-2044.379639C3607.710938,-2044.259399,3608.033447,-2044.212402,3608.353271,-2044.242432L3626.205322,-2044.242432L3626.53833,-2044.286499L3626.773438,-2044.408936C3626.973877,-2044.680054,3627.109619,-2044.993286,3627.170166,-2045.324829L3628.321045,-2045.324829L3628.321045,-2038.355469zM3512.0354,-2044.497192C3513.328857,-2044.334961,3514.597412,-2044.012451,3515.811523,-2043.537231C3519.210693,-2042.363525,3521.188232,-2038.823975,3520.405518,-2035.313965C3519.531006,-2032.228149,3516.781738,-2030.042847,3513.578125,-2029.887329C3511.593018,-2029.576294,3509.596436,-2029.342651,3507.593018,-2029.187012L3506.662598,-2029.069458C3505.501709,-2029.233521,3504.398438,-2028.513306,3504.081543,-2027.384644C3504.156006,-2026.629639,3504.602051,-2025.963379,3505.271484,-2025.606812C3509.070313,-2024.101807,3513.37915,-2024.776123,3516.536377,-2027.369873C3516.724121,-2027.618774,3516.787354,-2027.940186,3516.707764,-2028.241699L3517.672607,-2028.662964L3520.611084,-2022.795532L3519.744385,-2022.335083L3519.27417,-2022.629028L3518.960693,-2022.722046C3516.999268,-2022.070068,3515.045166,-2021.397461,3513.098145,-2020.704224L3511.099854,-2020.366211C3508.119629,-2019.924805,3505.075928,-2020.394165,3502.367188,-2021.713135C3499.531494,-2023.251343,3498.117432,-2026.535034,3498.94873,-2029.652222C3499.934814,-2032.614258,3502.688721,-2034.621216,3505.810303,-2034.652832C3507.42041,-2034.856934,3509.033691,-2035.036499,3510.64917,-2035.191528L3511.819824,-2035.333618C3512.894531,-2035.268188,3513.956787,-2035.621704,3514.778076,-2036.317993C3515.064209,-2036.735107,3515.115967,-2037.269165,3514.915039,-2037.733398C3514.297363,-2038.995361,3513.046143,-2039.826904,3511.643555,-2039.907959C3508.101318,-2040.598755,3504.444824,-2039.616455,3501.725586,-2037.243652C3501.594971,-2036.922729,3501.544434,-2036.574707,3501.578857,-2036.229858L3500.560059,-2035.857666L3497.900635,-2041.974854L3498.777344,-2042.410767L3499.213135,-2042.136475L3499.418945,-2042.043457C3500.527344,-2042.423584,3501.607666,-2042.881836,3502.651367,-2043.414795L3504.923828,-2044.105347C3507.250977,-2044.665405,3509.660645,-2044.798096,3512.0354,-2044.497192zM3651.820313,-2043.12085L3651.212891,-2042.915161L3650.899414,-2042.729126L3650.781982,-2042.489136C3650.689209,-2041.794067,3650.67627,-2041.09082,3650.742676,-2040.392944L3651.63916,-2040.392944L3651.972168,-2040.437012L3652.207275,-2040.559448C3652.406982,-2040.828369,3652.541016,-2041.140381,3652.598877,-2041.470337L3653.754883,-2041.470337L3653.754883,-2034.848755L3652.604004,-2034.848755L3652.398193,-2035.456055L3652.212158,-2035.764526L3651.977051,-2035.886963C3651.568359,-2035.94751,3651.154297,-2035.960693,3650.742676,-2035.926147L3650.742676,-2022.741577L3650.850586,-2022.467285C3651.324219,-2022.138916,3651.858398,-2021.909302,3652.422607,-2021.791504L3652.422607,-2020.660156L3642.132568,-2020.660156L3642.132568,-2021.830688L3642.77417,-2022.006958L3642.989746,-2022.256714C3642.854248,-2022.649414,3642.621826,-2023.001587,3642.313721,-2023.280396L3630.872803,-2036.141724L3630.872803,-2041.470337L3632.043457,-2041.470337L3632.209961,-2040.81897L3632.405762,-2040.520264C3632.749756,-2040.407104,3633.112793,-2040.36377,3633.473633,-2040.392944L3645.198486,-2040.392944C3645.274414,-2041.088989,3645.259766,-2041.791992,3645.154541,-2042.484253L3645.031982,-2042.719238C3644.762939,-2042.919067,3644.451172,-2043.053223,3644.121094,-2043.111084L3644.121094,-2044.242432L3651.820313,-2044.242432L3651.820313,-2043.12085zM3637.048828,-2035.926147L3645.198486,-2026.537354L3645.198486,-2035.926147L3637.048828,-2035.926147zM3495.226563,-2038.698242L3494.070557,-2038.698242L3493.869873,-2039.305542L3493.678711,-2039.619019L3493.448486,-2039.736572L3493.125244,-2039.775757L3478.726074,-2039.775757L3478.726074,-2034.197266L3487.684082,-2034.197266L3488.002441,-2034.241333L3488.232422,-2034.368774C3488.43335,-2034.635864,3488.569092,-2034.946045,3488.62915,-2035.27478L3489.780273,-2035.27478L3489.780273,-2028.790283L3488.62915,-2028.790283L3488.428467,-2029.397583L3488.237549,-2029.706177L3488.007324,-2029.828613L3487.684082,-2029.867798L3478.726074,-2029.867798L3478.726074,-2025.126831L3492.713867,-2025.126831L3493.037109,-2025.170898L3493.267334,-2025.293335C3493.468262,-2025.563477,3493.602539,-2025.877319,3493.65918,-2026.209229L3494.814941,-2026.209229L3494.814941,-2019.582642L3493.664063,-2019.582642L3493.458496,-2020.189941L3493.272217,-2020.498535L3493.041992,-2020.620972L3492.713867,-2020.660156L3471.947754,-2020.660156L3471.947754,-2021.796387L3472.554932,-2022.002075L3472.863525,-2022.193115L3472.986084,-2022.428223L3473.030029,-2022.76123L3473.030029,-2042.14624L3472.986084,-2042.484253L3472.863525,-2042.719238C3472.592529,-2042.919556,3472.279297,-2043.055298,3471.947754,-2043.115967L3471.947754,-2044.242432L3493.125244,-2044.242432L3493.443604,-2044.286499L3493.678711,-2044.408936C3493.879639,-2044.679199,3494.013916,-2044.993042,3494.070557,-2045.324829L3495.226563,-2045.324829L3495.226563,-2038.698242zM3593.567139,-2044.585327C3598.821533,-2044.01123,3602.913574,-2039.749756,3603.274414,-2034.47644C3603.746826,-2031.252686,3603.104248,-2027.964722,3601.452393,-2025.156128C3598.272461,-2020.498169,3592.158203,-2018.895508,3587.102295,-2021.394775C3585.878662,-2021.979126,3584.814697,-2022.85144,3584.001953,-2023.936646C3580.332031,-2028.582031,3579.990723,-2035.033447,3583.149658,-2040.040283C3585.477295,-2043.40918,3589.514404,-2045.170532,3593.567139,-2044.585327zM3591.010498,-2039.658203L3589.952637,-2039.241943C3587.765869,-2037.638184,3586.577148,-2035.007935,3586.818115,-2032.306763C3586.580566,-2029.608887,3587.766846,-2026.982422,3589.947754,-2025.376587C3592.031494,-2024.316162,3594.564453,-2024.790283,3596.123779,-2026.532471C3598.418945,-2030.298584,3598.121826,-2035.09729,3595.379395,-2038.551392C3594.211182,-2039.648438,3592.560059,-2040.066772,3591.010498,-2039.658203zM3755.19043,-2024.076294C3740.196289,-2038.567627,3722.880859,-2050.671631,3702.435303,-2060.954102C3689.027344,-2067.697266,3668.207031,-2076.299805,3665.31543,-2076.29126C3664.633301,-2076.289307,3670.744873,-2072.26001,3678.896729,-2067.337402C3699.255859,-2055.043213,3719.274414,-2038.887939,3732.604492,-2023.993896L3743.798584,-2011.486328L3755.954346,-2011.538086L3768.110107,-2011.589966L3755.19043,-2024.076294zM3398.011719,-2028.272583C3414.037842,-2044.969604,3436.705811,-2062.654541,3452.168213,-2070.523926C3456.623779,-2072.791504,3460.269287,-2075.001221,3460.269287,-2075.434326C3460.269287,-2076.841064,3435.856445,-2067.496582,3423.601074,-2061.398926C3417.034912,-2058.131836,3405.476074,-2051.368652,3397.914551,-2046.369873C3384.125,-2037.253418,3359.645264,-2015.928223,3359.645264,-2013.032104C3359.645264,-2012.181885,3364.652588,-2011.486328,3370.772461,-2011.486328L3381.899902,-2011.486328L3398.011719,-2028.272583zM3354.560791,-2022.733154C3370.568604,-2036.843506,3393.515137,-2052.281738,3412.435059,-2061.67041C3427.830322,-2069.310059,3431.5979,-2070.760498,3512.071289,-2100.031738L3563.020996,-2118.563721L3630.603027,-2093.865479C3718.066162,-2061.901367,3737.068359,-2052.323486,3770.046387,-2023.579468C3780.864502,-2014.150146,3785.091064,-2011.486328,3789.23291,-2011.486328C3792.154785,-2011.486328,3794.545166,-2012.181641,3794.545166,-2013.031494C3794.545166,-2013.881348,3787.446045,-2021.262085,3778.769531,-2029.432861C3760.486084,-2046.650513,3731.659668,-2066.443848,3710.939941,-2076.007324C3697.51123,-2082.205566,3566.766113,-2129.165039,3562.937744,-2129.165039C3560.048096,-2129.165039,3432.602295,-2083.89917,3420.911133,-2078.720215C3404.966553,-2071.657227,3384.506104,-2059.66626,3369.878174,-2048.812012C3355.735352,-2038.317383,3330.651855,-2015.432251,3330.651855,-2013.023315C3330.651855,-2012.177979,3333.160645,-2011.486328,3336.226807,-2011.486328C3340.669434,-2011.486328,3344.392822,-2013.770508,3354.560791,-2022.733154z"/>
    <path transform="matrix(1,0,0,-1,0,0)" style="stroke:none;fill:#000000;fill-rule:evenodd" d="M3730.368164,-1918.106812L3729.344482,-1917.788452C3728.681152,-1917.714355,3728.062988,-1917.397949,3727.638916,-1916.883301C3727.214844,-1916.36853,3727.022461,-1915.701294,3727.076904,-1915.035889L3727.076904,-1883.52417L3757.427979,-1915.040771C3758.052734,-1915.562378,3758.536133,-1916.232544,3758.833496,-1916.990112L3758.691406,-1917.27417C3758.048096,-1917.670776,3757.32959,-1917.92749,3756.580566,-1918.028442L3756.580566,-1921.329468L3779.271484,-1921.329468L3779.271484,-1918.116577L3778.223633,-1917.773682C3777.563965,-1917.698975,3776.949219,-1917.383789,3776.529541,-1916.870483C3776.109619,-1916.3573,3775.922607,-1915.692383,3775.980469,-1915.031006L3775.980469,-1868.120972C3775.861572,-1866.761353,3776.864502,-1865.561523,3778.223633,-1865.437012L3779.271484,-1865.118652L3779.271484,-1861.876465L3758.059814,-1861.876465L3758.059814,-1865.133423L3759.098145,-1865.451782C3759.750977,-1865.513306,3760.363281,-1865.815186,3760.7854,-1866.316162C3761.20752,-1866.817261,3761.401123,-1867.471924,3761.351074,-1868.125854L3761.351074,-1898.707031L3732.390869,-1868.463745C3731.711914,-1867.932129,3731.246094,-1867.174316,3731.078369,-1866.328369L3731.220459,-1866.02478C3731.855957,-1865.589111,3732.574219,-1865.290771,3733.331299,-1865.148071L3733.331299,-1861.876465L3709.15625,-1861.876465L3709.15625,-1865.118652L3710.189697,-1865.461548C3710.837158,-1865.532959,3711.442139,-1865.836182,3711.862793,-1866.33252C3712.283447,-1866.828857,3712.483398,-1867.475464,3712.44751,-1868.125854L3712.44751,-1915.079956C3712.546875,-1916.448853,3711.540283,-1917.64856,3710.175049,-1917.788452L3709.15625,-1918.077393L3709.15625,-1921.329468L3730.368164,-1921.329468L3730.368164,-1918.106812z"/>
    <path transform="matrix(1,0,0,-1,0,0)" style="stroke:none;fill:#000000;fill-rule:evenodd" d="M3508.88501,-1918.106812C3507.872803,-1917.919067,3506.919434,-1917.494507,3506.103027,-1916.867676C3505.721924,-1916.336548,3505.541504,-1915.6875,3505.59375,-1915.035889L3505.59375,-1883.52417L3535.939697,-1915.040771C3536.564697,-1915.563232,3537.049316,-1916.233032,3537.350342,-1916.990112L3537.208252,-1917.27417C3536.564941,-1917.670776,3535.846436,-1917.927612,3535.097412,-1918.028442L3535.097412,-1921.329468L3557.78833,-1921.329468L3557.78833,-1918.116577L3556.740234,-1917.773682C3556.080322,-1917.699585,3555.465576,-1917.384277,3555.045898,-1916.87085C3554.625977,-1916.357544,3554.438965,-1915.692505,3554.49707,-1915.031006L3554.49707,-1868.120972C3554.378418,-1866.761353,3555.381104,-1865.561523,3556.740234,-1865.437012L3557.78833,-1865.118652L3557.78833,-1861.876465L3536.576416,-1861.876465L3536.576416,-1865.133423L3537.614746,-1865.451782C3538.267578,-1865.513794,3538.879639,-1865.815674,3539.301758,-1866.316528C3539.723877,-1866.817505,3539.917236,-1867.471924,3539.867676,-1868.125854L3539.867676,-1898.707031L3510.907715,-1868.463745C3510.22876,-1867.932129,3509.762939,-1867.174316,3509.594971,-1866.328369L3509.737061,-1866.02478C3510.372559,-1865.589111,3511.09082,-1865.290771,3511.8479,-1865.148071L3511.8479,-1861.876465L3487.673096,-1861.876465L3487.673096,-1865.118652L3488.706299,-1865.461548C3489.354004,-1865.532959,3489.958984,-1865.836182,3490.379639,-1866.33252C3490.800293,-1866.828857,3491,-1867.475464,3490.964355,-1868.125854L3490.964355,-1915.079956C3491.063477,-1916.44873,3490.056885,-1917.648193,3488.69165,-1917.788452L3487.673096,-1918.077393L3487.673096,-1921.329468L3508.88501,-1921.329468L3508.88501,-1918.106812z"/>
    <path transform="matrix(1,0,0,-1,0,0)" style="stroke:none;fill:#000000;fill-rule:evenodd" d="M3390.801514,-1921.260864C3393.733887,-1921.141968,3396.634521,-1920.607788,3399.416748,-1919.674072C3408.229004,-1916.959106,3413.267578,-1907.685547,3410.75,-1898.814819C3410.281982,-1896.794312,3409.156982,-1894.985352,3407.551758,-1893.672241C3405.963135,-1891.629395,3403.776611,-1890.133057,3401.297363,-1889.391602L3403.246582,-1888.514893C3407.311523,-1886.486084,3409.758545,-1882.20874,3409.447021,-1877.676392C3409.78125,-1874.064697,3408.276367,-1870.520996,3405.445801,-1868.253174L3404.216309,-1867.494019L3402.727539,-1866.176636C3398.313721,-1863.115479,3393.011963,-1861.603638,3387.647461,-1861.876465L3346.438232,-1861.876465L3346.438232,-1865.118652L3347.47168,-1865.461548C3348.118896,-1865.533691,3348.723877,-1865.836792,3349.144287,-1866.333008C3349.564697,-1866.829224,3349.764648,-1867.475586,3349.729492,-1868.125854L3349.729492,-1915.079956C3349.827637,-1916.448364,3348.821533,-1917.647461,3347.457031,-1917.788452L3346.438232,-1918.077393L3346.438232,-1921.329468L3388.303711,-1921.329468L3390.801514,-1921.260864zM3365.612793,-1883.401733L3365.612793,-1874.360596L3385.340576,-1874.360596C3387.494629,-1874.184692,3389.658936,-1874.539551,3391.644043,-1875.394043C3393.05835,-1876.472168,3393.672363,-1878.299072,3393.196533,-1880.012573C3392.773193,-1881.860352,3391.120117,-1883.162842,3389.224609,-1883.142212C3387.938965,-1883.333496,3386.640137,-1883.420288,3385.340576,-1883.401733L3365.612793,-1883.401733zM3365.612793,-1908.845215L3365.612793,-1895.885986L3385.845215,-1895.885986C3388.276123,-1895.722656,3390.700684,-1896.287109,3392.80957,-1897.50708C3395.127686,-1899.341797,3395.851563,-1902.543091,3394.54834,-1905.196533C3393.138184,-1907.437134,3390.666992,-1908.779297,3388.019775,-1908.742432L3385.845215,-1908.845215L3365.612793,-1908.845215z"/>
    <path transform="matrix(1,0,0,-1,0,0)" style="stroke:none;fill:#000000;fill-rule:evenodd" d="M3670.067871,-1922.470581C3679.642822,-1922.185425,3688.665039,-1917.901733,3694.938232,-1910.662354C3699.233154,-1905.433472,3701.497559,-1898.829834,3701.315186,-1892.065796C3701.559082,-1886.403442,3700.07251,-1880.79834,3697.054199,-1876.001343C3695.307617,-1873.414063,3693.044922,-1871.216431,3690.407959,-1869.546143C3683.2854,-1862.920166,3673.631348,-1859.716431,3663.960449,-1860.769531C3656.534912,-1861.039063,3649.349609,-1863.485352,3643.302002,-1867.802612C3635.817871,-1873.371216,3631.562744,-1882.279419,3631.934326,-1891.600464C3631.719727,-1897.176147,3633.213623,-1902.686768,3636.215088,-1907.390625C3637.98584,-1909.993164,3640.256836,-1912.217407,3642.895508,-1913.93396C3649.423828,-1919.718018,3657.905518,-1922.80957,3666.624756,-1922.583252L3670.067871,-1922.470581zM3664.562744,-1909.540771C3662.647705,-1909.396973,3660.76416,-1908.969482,3658.974609,-1908.272217C3651.569824,-1905.274902,3647.121338,-1897.650635,3648.155518,-1889.729614C3648.879395,-1880.232666,3657.065674,-1873.054077,3666.575684,-1873.577026C3674.115479,-1873.246094,3681.059814,-1877.665527,3683.952881,-1884.635986C3686.609375,-1891.319946,3685.187988,-1898.936401,3680.299072,-1904.212036C3676.150146,-1908.310425,3670.348389,-1910.275024,3664.562744,-1909.540771z"/>
    <path transform="matrix(1,0,0,-1,0,0)" style="stroke:none;fill:#000000;fill-rule:evenodd" d="M3599.046387,-1922.504883C3605.300537,-1922.460938,3611.432373,-1920.749512,3616.80542,-1917.548462C3624.37207,-1913.13501,3627.353027,-1903.692017,3623.69165,-1895.734131C3622.04126,-1892.247925,3619.096924,-1889.544312,3615.483154,-1888.196533C3611.737305,-1885.894775,3607.473389,-1884.576294,3603.082031,-1884.361694C3599.633789,-1884.015991,3596.177734,-1883.736694,3592.71875,-1883.52417L3590.857422,-1883.362549C3587.713867,-1883.336548,3584.604736,-1882.706421,3581.69873,-1881.506348C3580.912598,-1881.047241,3580.430664,-1880.203003,3580.435303,-1879.292603C3580.574707,-1877.616211,3581.604736,-1876.148926,3583.133789,-1875.447876C3588.204346,-1873.174072,3593.849609,-1872.519287,3599.305908,-1873.572144C3604.306396,-1874.088257,3609.079346,-1875.923706,3613.137207,-1878.890991C3613.712158,-1879.598145,3613.977051,-1880.507935,3613.871826,-1881.41333L3616.604736,-1882.480957L3624.161865,-1867.650757L3621.693359,-1866.357788L3620.99292,-1866.852417C3620.213623,-1867.617065,3618.973877,-1867.678345,3618.123047,-1866.994507L3613.837402,-1865.089355C3603.60498,-1860.255615,3591.962158,-1859.31543,3581.08667,-1862.44458C3575.845703,-1863.842285,3571.321289,-1867.166626,3568.421143,-1871.750122C3564.410889,-1878.995972,3565.922852,-1888.049316,3572.070068,-1893.598755C3575.62793,-1896.220093,3579.856689,-1897.775757,3584.265137,-1898.085083C3589.848877,-1898.678467,3595.437744,-1899.19751,3601.034912,-1899.642456L3603.434814,-1899.960815C3605.465088,-1900.024414,3607.419189,-1900.750366,3608.998535,-1902.02771C3609.985107,-1903.257813,3609.983154,-1905.006836,3608.993652,-1906.234741C3606.717773,-1908.439331,3603.706787,-1909.719727,3600.540283,-1909.829712C3592.17041,-1910.770264,3583.70752,-1909.323853,3576.125244,-1905.65686L3574.342529,-1904.510742L3574.455078,-1904.060181C3574.500244,-1903.445801,3574.513184,-1902.829468,3574.494385,-1902.213745L3571.541016,-1901.337036L3565.178955,-1916.999878L3567.916748,-1917.974487L3568.401611,-1917.435791C3568.595947,-1917.109375,3568.911621,-1916.867798,3569.282471,-1916.788574C3569.65332,-1916.709351,3570.040039,-1916.800903,3570.35083,-1917.019531L3573.431641,-1918.327148C3581.572021,-1921.537964,3590.307617,-1922.962769,3599.046387,-1922.504883z"/>
    <path transform="matrix(1,0,0,-1,0,0)" style="stroke:none;fill:#000000;fill-rule:evenodd" d="M3479.954346,-1905.549072L3476.648193,-1905.549072L3476.339844,-1906.592285C3476.278809,-1907.24646,3475.976318,-1907.859741,3475.473877,-1908.282104C3474.97168,-1908.70459,3474.315674,-1908.897461,3473.660645,-1908.845215L3438.36792,-1908.845215L3438.36792,-1896.929199L3458.874512,-1896.929199C3460.24292,-1896.829468,3461.445068,-1897.828369,3461.597656,-1899.191895L3461.916016,-1900.220459L3465.173096,-1900.220459L3465.173096,-1881.570068L3461.930664,-1881.570068L3461.587891,-1882.613281C3461.514893,-1883.268555,3461.204834,-1883.880249,3460.697754,-1884.300415C3460.190674,-1884.720459,3459.531982,-1884.911377,3458.874512,-1884.861328L3438.36792,-1884.861328L3438.36792,-1874.360596L3472.093506,-1874.360596C3473.4646,-1874.245605,3474.675537,-1875.249756,3474.81665,-1876.618408L3475.130127,-1877.651855L3478.386963,-1877.651855L3478.386963,-1858.585205L3475.13501,-1858.585205L3474.81665,-1859.628418C3474.755615,-1860.291626,3474.447021,-1860.91333,3473.933838,-1861.336304C3473.42041,-1861.759399,3472.751221,-1861.943359,3472.088623,-1861.876465L3419.193604,-1861.876465L3419.193604,-1865.118652L3420.227051,-1865.461548C3420.874512,-1865.532593,3421.479492,-1865.835815,3421.900391,-1866.332275C3422.321045,-1866.828735,3422.520996,-1867.475342,3422.484863,-1868.125854L3422.484863,-1915.079956C3422.583984,-1916.448853,3421.577637,-1917.648438,3420.212158,-1917.788452L3419.193604,-1918.077393L3419.193604,-1921.329468L3473.660645,-1921.329468C3475.021729,-1921.239014,3476.209473,-1922.244629,3476.344727,-1923.601929L3476.638428,-1924.620728L3479.954346,-1924.620728L3479.954346,-1905.549072z"/>
    <path transform="matrix(1,0,0,-1,0,0)" style="stroke:none;fill:#000000;fill-rule:evenodd" d="M3586.110352,-1984.103882C3585.121094,-1983.899048,3584.189453,-1983.477539,3583.382324,-1982.869629C3583.026611,-1982.357666,3582.860352,-1981.737549,3582.912354,-1981.116211L3582.912354,-1964.336792L3601.645996,-1964.336792C3607.328613,-1964.651855,3613.000977,-1963.519043,3618.126709,-1961.045532C3623.186523,-1958.203247,3626.153564,-1952.694824,3625.742432,-1946.905884C3626.084473,-1938.461792,3619.78833,-1931.188843,3611.382568,-1930.317383C3608.168945,-1929.719727,3604.904541,-1929.4375,3601.63623,-1929.474976L3564.286377,-1929.474976L3564.286377,-1932.624268L3565.290283,-1932.957275C3565.918701,-1933.027344,3566.505859,-1933.321533,3566.914551,-1933.803101C3567.322998,-1934.284668,3567.517578,-1934.911865,3567.484619,-1935.543213L3567.484619,-1981.155396C3567.582031,-1982.485718,3566.602783,-1983.651733,3565.275635,-1983.785522L3564.286377,-1984.06958L3564.286377,-1987.223633L3586.110352,-1987.223633L3586.110352,-1984.103882zM3582.912354,-1941.601685L3600.837891,-1941.601685C3602.97168,-1941.450806,3605.115723,-1941.677979,3607.17041,-1942.272705C3609.006104,-1943.062256,3610.158447,-1944.910156,3610.060059,-1946.905884C3610.071289,-1949.054077,3608.933594,-1951.04541,3607.077393,-1952.126831C3599.024902,-1952.316162,3590.966064,-1952.343872,3582.912354,-1952.210083L3582.912354,-1941.601685z"/>
    <path transform="matrix(1,0,0,-1,0,0)" style="stroke:none;fill:#000000;fill-rule:evenodd" d="M3725.376221,-1984.108765L3724.362305,-1983.770752C3723.72168,-1983.699097,3723.124512,-1983.394043,3722.71582,-1982.896484C3722.307373,-1982.398926,3722.124023,-1981.753784,3722.177979,-1981.111328L3722.177979,-1935.543213C3722.06665,-1934.222778,3723.038574,-1933.05896,3724.357422,-1932.932739L3725.376221,-1932.62915L3725.376221,-1929.474976L3703.557129,-1929.474976L3703.557129,-1932.624268L3704.561035,-1932.957275C3705.188721,-1933.029053,3705.774414,-1933.324097,3706.182617,-1933.805176C3706.59082,-1934.286255,3706.786621,-1934.912354,3706.755127,-1935.543213L3706.755127,-1981.155396C3706.848633,-1982.484375,3705.871582,-1983.647827,3704.546387,-1983.785522L3703.557129,-1984.06958L3703.557129,-1987.223633L3725.376221,-1987.223633L3725.376221,-1984.108765z"/>
    <path transform="matrix(1,0,0,-1,0,0)" style="stroke:none;fill:#000000;fill-rule:evenodd" d="M3514.398438,-1984.103882C3513.40918,-1983.899048,3512.477295,-1983.477539,3511.67041,-1982.869629C3511.314697,-1982.357666,3511.148438,-1981.737549,3511.200195,-1981.116211L3511.200195,-1964.336792L3522.974365,-1964.336792L3534.263428,-1980.288574C3534.993896,-1980.977051,3535.293457,-1982.015381,3535.042236,-1982.987183C3534.324219,-1983.527954,3533.494629,-1983.899292,3532.613037,-1984.074463L3532.613037,-1987.223633L3558.09082,-1987.223633L3558.09082,-1984.015625L3556.783203,-1983.716919C3554.734131,-1983.075195,3552.940918,-1981.801392,3551.660156,-1980.077881C3550.561035,-1978.879517,3549.484619,-1977.659302,3548.432617,-1976.419312L3539.05835,-1963.391479C3541.405029,-1962.987427,3543.689697,-1962.282837,3545.856445,-1961.295288C3551.612305,-1958.782227,3555.170654,-1952.917114,3554.740723,-1946.651245C3555.072998,-1941.935059,3553.232178,-1937.320313,3549.745117,-1934.127808C3545.930664,-1931.223022,3541.266846,-1929.655396,3536.472412,-1929.666016C3534.361084,-1929.531982,3532.245605,-1929.468262,3530.129883,-1929.474976L3492.574463,-1929.474976L3492.574463,-1932.624268L3493.578369,-1932.957275C3494.206787,-1933.027344,3494.793945,-1933.321533,3495.202393,-1933.803101C3495.611084,-1934.284668,3495.805664,-1934.911865,3495.772461,-1935.543213L3495.772461,-1981.155396C3495.870117,-1982.485718,3494.890869,-1983.651733,3493.563721,-1983.785522L3492.574463,-1984.06958L3492.574463,-1987.223633L3514.398438,-1987.223633L3514.398438,-1984.103882zM3511.200195,-1952.210083L3511.200195,-1941.601685L3530.227783,-1941.601685C3532.629395,-1941.400146,3535.043457,-1941.800781,3537.251221,-1942.767334C3538.878662,-1944.164917,3539.518555,-1946.390259,3538.88208,-1948.438843C3538.161621,-1950.5802,3536.1604,-1952.020508,3533.901123,-1952.023926C3532.681885,-1952.16333,3531.454834,-1952.225464,3530.227783,-1952.210083L3511.200195,-1952.210083z"/>
    <path transform="matrix(1,0,0,-1,0,0)" style="stroke:none;fill:#000000;fill-rule:evenodd" d="M3653.664307,-1984.103882C3652.833252,-1983.891357,3652.032959,-1983.571899,3651.283936,-1983.153687C3650.673828,-1982.663208,3650.364258,-1981.892456,3650.466064,-1981.116211L3650.466064,-1964.336792L3662.240234,-1964.336792L3673.53418,-1980.288574C3674.260986,-1980.979248,3674.55835,-1982.016357,3674.308105,-1982.987183C3673.592285,-1983.528564,3672.76416,-1983.900024,3671.883789,-1984.074463L3671.883789,-1987.223633L3697.356445,-1987.223633L3697.356445,-1984.015625L3696.053711,-1983.716919C3694.002686,-1983.076416,3692.20752,-1981.80249,3690.925781,-1980.077881C3689.82666,-1978.879395,3688.750488,-1977.659424,3687.698242,-1976.419312L3678.329102,-1963.391479C3680.673828,-1962.98645,3682.956787,-1962.281982,3685.12207,-1961.295288C3690.880371,-1958.78418,3694.440918,-1952.918335,3694.011475,-1946.651245C3694.341553,-1941.935547,3692.500977,-1937.321533,3689.015869,-1934.127808C3685.200928,-1931.223633,3680.537598,-1929.656006,3675.743164,-1929.666016C3673.630127,-1929.532104,3671.512939,-1929.468384,3669.395752,-1929.474976L3631.844971,-1929.474976L3631.844971,-1932.624268L3632.849121,-1932.957275C3633.476807,-1933.028076,3634.062744,-1933.322876,3634.470459,-1933.804443C3634.87793,-1934.285889,3635.072021,-1934.912476,3635.03833,-1935.543213L3635.03833,-1981.155396C3635.136719,-1982.485962,3634.156982,-1983.652466,3632.82959,-1983.785522L3631.844971,-1984.06958L3631.844971,-1987.223633L3653.664307,-1987.223633L3653.664307,-1984.103882zM3650.466064,-1952.210083L3650.466064,-1941.601685L3669.493652,-1941.601685C3671.895264,-1941.39856,3674.30957,-1941.799316,3676.516846,-1942.767334C3678.149658,-1944.161499,3678.790527,-1946.390259,3678.147949,-1948.438843C3677.429688,-1950.581909,3675.427002,-1952.023315,3673.166992,-1952.023926C3671.94751,-1952.16333,3670.720703,-1952.225464,3669.493652,-1952.210083L3650.466064,-1952.210083z"/>
    <path transform="matrix(1,0,0,-1,0,0)" style="stroke:none;fill:#000000;fill-rule:evenodd" d="M3309.474365,-1984.093994C3308.490234,-1983.913086,3307.563232,-1983.5,3306.770752,-1982.88916C3306.397949,-1982.375,3306.222656,-1981.744141,3306.276123,-1981.111328L3306.276123,-1950.500732C3316.381104,-1960.809692,3326.380371,-1971.200439,3336.293945,-1981.694214C3336.865967,-1981.999878,3337.152344,-1982.659302,3336.984619,-1983.285889C3336.359131,-1983.671631,3335.660645,-1983.921753,3334.932373,-1984.020508L3334.932373,-1987.223633L3356.972168,-1987.223633L3356.972168,-1984.108765L3355.958252,-1983.770752C3355.317871,-1983.69873,3354.720947,-1983.393921,3354.313232,-1982.89624C3353.905273,-1982.39856,3353.723633,-1981.753296,3353.778809,-1981.111328L3353.778809,-1935.543213C3353.66333,-1934.221558,3354.637207,-1933.055054,3355.958252,-1932.932739L3356.972168,-1932.62915L3356.972168,-1929.474976L3336.372314,-1929.474976L3336.372314,-1932.638916L3337.381348,-1932.94751C3338.014648,-1933.008057,3338.60791,-1933.301758,3339.01709,-1933.787964C3339.42627,-1934.27417,3339.614014,-1934.908936,3339.565674,-1935.543213L3339.565674,-1965.252563L3311.438232,-1935.876221C3310.778076,-1935.359619,3310.325928,-1934.622314,3310.164795,-1933.799683L3310.302002,-1933.505859C3310.918457,-1933.079956,3311.617432,-1932.789795,3312.354004,-1932.653564L3312.354004,-1929.474976L3288.869629,-1929.474976L3288.869629,-1932.624268L3289.873779,-1932.957275C3290.502197,-1933.027344,3291.089355,-1933.321533,3291.497803,-1933.803101C3291.90625,-1934.284546,3292.101074,-1934.911865,3292.067871,-1935.543213L3292.067871,-1981.155396C3292.165527,-1982.485596,3291.186035,-1983.651611,3289.859131,-1983.785522L3288.869629,-1984.06958L3288.869629,-1987.223633L3309.474365,-1987.223633L3309.474365,-1984.093994z"/>
    <path transform="matrix(1,0,0,-1,0,0)" style="stroke:none;fill:#000000;fill-rule:evenodd" d="M3895.923584,-1988.369751C3901.997559,-1988.321167,3907.951904,-1986.659302,3913.17334,-1983.555298C3920.52002,-1979.264038,3923.413086,-1970.093262,3919.858643,-1962.363037C3918.256836,-1958.977417,3915.398682,-1956.351196,3911.890137,-1955.040894C3908.250977,-1952.80481,3904.10791,-1951.524902,3899.841797,-1951.318726C3896.492676,-1950.979126,3893.136963,-1950.70813,3889.776855,-1950.505737L3887.969727,-1950.348999C3884.915527,-1950.32019,3881.895264,-1949.708496,3879.070557,-1948.546631C3878.306885,-1948.100586,3877.838379,-1947.280884,3877.841309,-1946.396484C3877.980225,-1944.766602,3878.980957,-1943.339966,3880.466553,-1942.654663C3885.394043,-1940.449951,3890.877686,-1939.815796,3896.178223,-1940.837646C3901.033936,-1941.338867,3905.668213,-1943.12207,3909.607666,-1946.004761C3910.166748,-1946.69104,3910.424561,-1947.574219,3910.322754,-1948.453491L3912.977295,-1949.491821L3920.318848,-1935.082886L3917.919189,-1933.829102L3917.238281,-1934.30896C3916.483643,-1935.055664,3915.275879,-1935.115112,3914.451416,-1934.446167L3910.288574,-1932.599731C3900.35083,-1927.901001,3889.04126,-1926.986816,3878.478027,-1930.028442C3873.387695,-1931.385498,3868.992676,-1934.613403,3866.175049,-1939.064697C3862.277832,-1946.103149,3863.745117,-1954.899048,3869.716064,-1960.29126C3873.172363,-1962.83728,3877.281006,-1964.347168,3881.563477,-1964.645264C3886.987305,-1965.225708,3892.415527,-1965.72998,3897.853271,-1966.158691L3900.18457,-1966.472168C3902.155762,-1966.535522,3904.052734,-1967.240601,3905.58667,-1968.480225C3906.547119,-1969.672974,3906.547119,-1971.37207,3905.58667,-1972.564819C3903.375,-1974.705688,3900.449463,-1975.947754,3897.373291,-1976.052002C3889.242188,-1976.967285,3881.020264,-1975.563232,3873.653809,-1972.001587L3871.924805,-1970.889893L3872.032715,-1970.449097C3872.077637,-1969.852661,3872.09082,-1969.254272,3872.071777,-1968.656494L3869.20166,-1967.804321L3863.025879,-1983.016479L3865.68042,-1983.966675L3866.155273,-1983.442627C3866.34375,-1983.12439,3866.651123,-1982.889282,3867.012207,-1982.812744C3867.373291,-1982.736206,3867.749512,-1982.826416,3868.050781,-1983.041016L3871.03833,-1984.30957C3878.947021,-1987.428833,3887.433594,-1988.813477,3895.923584,-1988.369751z"/>
    <path transform="matrix(1,0,0,-1,0,0)" style="stroke:none;fill:#000000;fill-rule:evenodd" d="M3764.969238,-1988.369751C3771.043457,-1988.322632,3776.998047,-1986.660767,3782.21875,-1983.555298C3789.566895,-1979.264893,3792.460205,-1970.093262,3788.904053,-1962.363037C3787.302246,-1958.977417,3784.444336,-1956.351196,3780.935547,-1955.040894C3777.296631,-1952.804443,3773.153564,-1951.524536,3768.887207,-1951.318726C3765.53833,-1950.979126,3762.182617,-1950.70813,3758.82251,-1950.505737L3757.015381,-1950.348999C3753.961182,-1950.320068,3750.940918,-1949.708374,3748.116211,-1948.546631C3747.35498,-1948.098755,3746.888428,-1947.279785,3746.891846,-1946.396484C3747.030518,-1944.767822,3748.029053,-1943.342041,3749.511963,-1942.654663C3754.439697,-1940.450195,3759.923096,-1939.81604,3765.223877,-1940.837646C3770.07959,-1941.338379,3774.714111,-1943.121582,3778.65332,-1946.004761C3779.216797,-1946.688599,3779.475098,-1947.573853,3779.368408,-1948.453491L3782.022949,-1949.491821L3789.364502,-1935.082886L3786.9646,-1933.829102L3786.283936,-1934.30896C3785.531006,-1935.05542,3784.324707,-1935.11499,3783.501953,-1934.446167L3779.333984,-1932.599731C3769.396484,-1927.901001,3758.086914,-1926.986816,3747.523682,-1930.028442C3742.43335,-1931.385498,3738.03833,-1934.613403,3735.220703,-1939.064697C3731.323975,-1946.103149,3732.79126,-1954.898804,3738.761719,-1960.29126C3742.218994,-1962.835815,3746.326904,-1964.345459,3750.609131,-1964.645264C3756.033203,-1965.22583,3761.461182,-1965.72998,3766.898926,-1966.158691L3769.230225,-1966.472168C3771.203125,-1966.534546,3773.101807,-1967.239746,3774.637207,-1968.480225C3775.594727,-1969.674805,3775.592773,-1971.372559,3774.632324,-1972.564819C3772.422852,-1974.706055,3769.498779,-1975.948364,3766.423828,-1976.052002C3758.29126,-1976.966553,3750.067871,-1975.562622,3742.699463,-1972.001587L3740.970459,-1970.889893L3741.083008,-1970.449097C3741.122559,-1969.852417,3741.134033,-1969.254272,3741.117432,-1968.656494L3738.247314,-1967.804321L3732.071289,-1983.016479L3734.730713,-1983.966675L3735.200928,-1983.442627C3735.389648,-1983.124878,3735.697021,-1982.889771,3736.057861,-1982.813354C3736.418701,-1982.736938,3736.794922,-1982.827148,3737.096436,-1983.041016L3740.088867,-1984.30957C3747.99585,-1987.429321,3756.480713,-1988.813965,3764.969238,-1988.369751z"/>
    <path transform="matrix(1,0,0,-1,0,0)" style="stroke:none;fill:#000000;fill-rule:evenodd" d="M3484.037598,-1971.898804L3480.829834,-1971.898804L3480.526123,-1972.912598C3480.466797,-1973.547363,3480.173096,-1974.142578,3479.685547,-1974.552246C3479.197998,-1974.961792,3478.561035,-1975.148071,3477.925293,-1975.096924L3443.646484,-1975.096924L3443.646484,-1963.528687L3463.56543,-1963.528687C3464.893311,-1963.428589,3466.060791,-1964.399048,3466.205322,-1965.722778L3466.513672,-1966.721924L3469.677734,-1966.721924L3469.677734,-1948.605347L3466.533447,-1948.605347L3466.195313,-1949.619141C3466.124023,-1950.254395,3465.822754,-1950.846802,3465.331543,-1951.254761C3464.840576,-1951.66272,3464.202881,-1951.850098,3463.56543,-1951.803589L3443.646484,-1951.803589L3443.646484,-1941.601685L3476.402344,-1941.601685C3477.734131,-1941.494263,3478.90918,-1942.467285,3479.051758,-1943.795898L3479.350586,-1944.799927L3482.519531,-1944.799927L3482.519531,-1926.276855L3479.355469,-1926.276855L3479.046875,-1927.295532C3478.988281,-1927.938721,3478.689209,-1928.541748,3478.19165,-1928.951904C3477.693848,-1929.362061,3477.044678,-1929.540161,3476.402344,-1929.474976L3425.020508,-1929.474976L3425.020508,-1932.624268L3426.024658,-1932.957275C3426.652344,-1933.028564,3427.238281,-1933.323608,3427.646729,-1933.80481C3428.054932,-1934.286011,3428.250732,-1934.912231,3428.21875,-1935.543213L3428.21875,-1981.155396C3428.316406,-1982.485718,3427.336914,-1983.651733,3426.01001,-1983.785522L3425.020508,-1984.06958L3425.020508,-1987.223633L3477.92041,-1987.223633C3479.242676,-1987.1427,3480.394531,-1988.115479,3480.535889,-1989.432495L3480.814941,-1990.421875L3484.037598,-1990.421875L3484.037598,-1971.898804z"/>
    <path transform="matrix(1,0,0,-1,0,0)" style="stroke:none;fill:#000000;fill-rule:evenodd" d="M3281.376221,-1971.898804L3278.16333,-1971.898804L3277.859619,-1972.912598C3277.800293,-1973.547363,3277.506592,-1974.142578,3277.019043,-1974.552124C3276.531494,-1974.96167,3275.894531,-1975.148071,3275.259033,-1975.096924L3240.97998,-1975.096924L3240.97998,-1963.528687L3260.898926,-1963.528687C3262.226807,-1963.431519,3263.394043,-1964.39978,3263.543701,-1965.722778L3263.847412,-1966.721924L3267.01123,-1966.721924L3267.01123,-1948.605347L3263.866943,-1948.605347L3263.533936,-1949.619141C3263.46167,-1950.255005,3263.159668,-1950.847778,3262.667725,-1951.255737C3262.175781,-1951.663574,3261.537109,-1951.850342,3260.898926,-1951.803589L3240.97998,-1951.803589L3240.97998,-1941.601685L3273.73584,-1941.601685C3275.067871,-1941.493652,3276.243164,-1942.467041,3276.385498,-1943.795898L3276.689209,-1944.799927L3279.853027,-1944.799927L3279.853027,-1926.276855L3276.689209,-1926.276855L3276.380615,-1927.295532C3276.321777,-1927.938599,3276.022949,-1928.541748,3275.525146,-1928.951904C3275.027588,-1929.362061,3274.378418,-1929.540161,3273.73584,-1929.474976L3222.354248,-1929.474976L3222.354248,-1932.624268L3223.358154,-1932.957275C3223.986572,-1933.027344,3224.57373,-1933.321533,3224.982422,-1933.803101C3225.390869,-1934.284546,3225.585449,-1934.911865,3225.55249,-1935.543213L3225.55249,-1981.155396C3225.649902,-1982.485596,3224.670654,-1983.651611,3223.343506,-1983.785522L3222.354248,-1984.06958L3222.354248,-1987.223633L3275.259033,-1987.223633C3276.57959,-1987.144531,3277.72876,-1988.117065,3277.869629,-1989.432495L3278.148682,-1990.421875L3281.376221,-1990.421875L3281.376221,-1971.898804z"/>
    <path transform="matrix(1,0,0,-1,0,0)" style="stroke:none;fill:#000000;fill-rule:evenodd" d="M3857.153564,-1971.898804L3853.940674,-1971.898804L3853.636963,-1972.912598C3853.578369,-1973.547729,3853.284668,-1974.143188,3852.796875,-1974.552856C3852.309082,-1974.962646,3851.671875,-1975.149048,3851.036133,-1975.096924L3816.757324,-1975.096924L3816.757324,-1963.528687L3836.67627,-1963.528687C3838.005127,-1963.427734,3839.174561,-1964.398193,3839.321045,-1965.722778L3839.629395,-1966.721924L3842.793457,-1966.721924L3842.793457,-1948.605347L3839.644287,-1948.605347L3839.311279,-1949.619141C3839.23877,-1950.255005,3838.937012,-1950.847778,3838.444824,-1951.255615C3837.952881,-1951.663574,3837.314453,-1951.850342,3836.67627,-1951.803589L3816.757324,-1951.803589L3816.757324,-1941.601685L3849.513184,-1941.601685C3850.845215,-1941.493652,3852.020508,-1942.467041,3852.162598,-1943.795898L3852.466309,-1944.799927L3855.630371,-1944.799927L3855.630371,-1926.276855L3852.466309,-1926.276855L3852.162598,-1927.295532C3852.102539,-1927.938965,3851.802246,-1928.541748,3851.303711,-1928.95166C3850.80542,-1929.361572,3850.156006,-1929.540039,3849.513184,-1929.474976L3798.131348,-1929.474976L3798.131348,-1932.624268L3799.135498,-1932.957275C3799.763672,-1933.027344,3800.351074,-1933.321533,3800.759521,-1933.803101C3801.167969,-1934.284668,3801.362793,-1934.911865,3801.32959,-1935.543213L3801.32959,-1981.155396C3801.427002,-1982.485596,3800.447754,-1983.651733,3799.12085,-1983.785522L3798.131348,-1984.06958L3798.131348,-1987.223633L3851.036133,-1987.223633C3852.358398,-1987.139648,3853.510742,-1988.114624,3853.646729,-1989.432495L3853.930664,-1990.421875L3857.153564,-1990.421875L3857.153564,-1971.898804z"/>
    <path transform="matrix(1,0,0,-1,0,0)" style="stroke:none;fill:#000000;fill-rule:evenodd" d="M3401.810303,-1984.108765C3400.82251,-1983.897095,3399.891846,-1983.474365,3399.08252,-1982.869629C3398.725586,-1982.356201,3398.559082,-1981.734253,3398.612305,-1981.111328L3398.612305,-1941.601685L3413.96167,-1941.601685C3415.291748,-1941.503052,3416.460693,-1942.474976,3416.606445,-1943.800781L3416.914795,-1944.799927L3420.078857,-1944.799927L3420.078857,-1926.276855L3416.914795,-1926.276855L3416.611328,-1927.295532C3416.550293,-1927.939575,3416.249268,-1928.542847,3415.75,-1928.952881C3415.250732,-1929.362793,3414.600342,-1929.540527,3413.956787,-1929.474976L3367.742188,-1929.474976C3366.421387,-1929.576416,3365.265625,-1928.595459,3365.151123,-1927.275879L3364.87207,-1926.276855L3361.718018,-1926.276855L3361.718018,-1944.799927L3364.867188,-1944.799927L3365.175781,-1943.795898C3365.235352,-1943.158569,3365.530029,-1942.561035,3366.019287,-1942.149658C3366.508789,-1941.738281,3367.148193,-1941.550781,3367.786133,-1941.601685L3383.18457,-1941.601685L3383.18457,-1981.155396C3383.282715,-1982.485962,3382.303223,-1983.652466,3380.975586,-1983.785522L3379.991211,-1984.06958L3379.991211,-1987.223633L3401.810303,-1987.223633L3401.810303,-1984.108765z"/>
</svg>
